<?xml version="1.0" encoding="utf-8"?>
<!-- Generator: Adobe Illustrator 21.1.0, SVG Export Plug-In . SVG Version: 6.00 Build 0)  -->
<svg version="1.0" id="Layer_1" xmlns="http://www.w3.org/2000/svg" xmlns:xlink="http://www.w3.org/1999/xlink" x="0px" y="0px"
	 viewBox="0 0 320.3 31.4" style="enable-background:new 0 0 320.3 31.4;" xml:space="preserve">
<style type="text/css">
	.st0{fill:#2C2E73;}
	.st1{fill:#5C717B;}
	.st2{fill:none;stroke:#5C717B;stroke-width:0.709;stroke-miterlimit:3.864;}
</style>
<path class="st0" d="M11.2,22.8v-1H10c-2.2,0-3.1-0.6-3.1-2.5V3.6c0-1.8-1-3.1-3.3-3.1H2.3v19.3c0,3.8,2.1,5.8,5.9,5.8
	C10.2,25.6,11.2,24.8,11.2,22.8"/>
<path class="st0" d="M25.4,21.4c0.9-2,4.1-10.5,4.1-12.5c0-1.5-0.7-2.2-2.2-2.2h-2c-0.4,3.8-2.1,9.4-3.6,12.9
	C20,16.3,18.6,12.4,18,8.8c-0.2-1.3-1.4-2.2-2.7-2.2h-2.5c0.6,4.4,4.1,13.7,6.6,17.4c-1,2.6-1.6,3.3-3.3,3.4l-2.6,0.2v0.9
	c0,1.7,1.5,2.9,3.2,2.9C20.1,31.4,22,29.5,25.4,21.4"/>
<path class="st0" d="M42.6,22.8v-1h-0.9c-2,0-2.8-0.6-2.8-2.5v-8.7c0-2.4-1.2-3.5-3.3-3.5h-1.3v12.6c0,3.8,2,5.8,5.6,5.8
	C41.8,25.6,42.6,24.8,42.6,22.8 M39.2,2.7C39.2,1.2,38,0,36.5,0s-2.7,1.2-2.7,2.7s1.2,2.7,2.7,2.7S39.2,4.2,39.2,2.7"/>
<path class="st0" d="M46,7.5v11.2c0,4.4,2.3,6.9,7,6.9c2.7,0,4.1-1.2,4.1-3.1v-1.7h-0.2c-0.7,0.4-1.9,0.7-3.4,0.7
	c-1.9,0-2.9-0.9-2.9-3.4v-7.3h3.7c1.9,0,2.8-1.2,2.8-2.2V6.7h-6.5V2.5h-1.1c-0.7,0-1.6,0.6-2.2,1.3C46.3,5,46,5.6,46,7.5"/>
<path class="st1" d="M95.1,23.2v-0.5c-0.3,0.1-0.8,0.3-1.5,0.3h-0.4c-1.1,0-1.4-0.4-1.4-1.5V18c0-0.7-0.3-1.1-0.9-1.1h-0.6v4.7
	c0,1.8,1,2.7,2.7,2.7h0.6C94.8,24.3,95.1,23.9,95.1,23.2"/>
<path class="st1" d="M99.4,20.4c0,0.4-0.3,0.6-1.7,0.6h-0.6v-0.2c0-0.7,0.5-1.2,1.2-1.2C99,19.5,99.4,19.8,99.4,20.4 M100.7,20.5
	c0-1.4-1.1-2.3-2.3-2.3c-1.7,0-2.9,1.2-2.9,3.2c0,1.8,1.4,2.9,2.9,2.9c1.6,0,2.1-0.6,2.1-1.3v-0.5h-0.1c-0.5,0.4-1.2,0.5-1.8,0.5
	c-0.9,0-1.5-0.5-1.6-1.2h0.9C99.9,22,100.7,21.6,100.7,20.5"/>
<path class="st1" d="M102.4,18.6v3.5c0,1.4,0.7,2.2,2.2,2.2c0.8,0,1.3-0.4,1.3-1v-0.5h-0.1c-0.2,0.1-0.6,0.2-1,0.2
	c-0.6,0-0.9-0.3-0.9-1v-2.3h1.2c0.6,0,0.9-0.4,0.9-0.7v-0.6h-2v-1.3h-0.3c-0.2,0-0.5,0.2-0.7,0.4C102.5,17.9,102.4,18.1,102.4,18.6"
	/>
<path class="st1" d="M107.2,18.6v3.5c0,1.4,0.7,2.2,2.2,2.2c0.8,0,1.3-0.4,1.3-1v-0.5h-0.1c-0.2,0.1-0.6,0.2-1,0.2
	c-0.6,0-0.9-0.3-0.9-1v-2.3h1.2c0.6,0,0.9-0.4,0.9-0.7v-0.6h-2v-1.3h-0.3c-0.2,0-0.5,0.2-0.7,0.4C107.3,17.9,107.2,18.1,107.2,18.6"
	/>
<path class="st1" d="M115.5,20.4c0,0.4-0.3,0.6-1.7,0.6h-0.6v-0.2c0-0.7,0.5-1.2,1.2-1.2C115.1,19.5,115.5,19.8,115.5,20.4
	 M116.8,20.5c0-1.4-1.1-2.3-2.3-2.3c-1.7,0-2.9,1.2-2.9,3.2c0,1.8,1.4,2.9,2.9,2.9c1.6,0,2.1-0.6,2.1-1.3v-0.5h-0.1
	c-0.5,0.4-1.2,0.5-1.8,0.5c-0.9,0-1.5-0.5-1.6-1.2h0.9C116,22,116.8,21.6,116.8,20.5"/>
<path class="st1" d="M121.8,19.8v-0.5c0-0.4-0.3-0.9-1.2-0.9c-1.5,0-2.1,1.1-2.1,2.3v2.7c0,0.6,0.4,0.9,1.1,0.9h0.4V21
	c0-0.9,0.4-1.2,1-1.2C121.2,19.7,121.5,19.7,121.8,19.8L121.8,19.8z"/>
<path class="st1" d="M123.5,16.5H123v6.7c0,0.7,0.3,1,1,1h0.5v-2.8c0.6,0.9,1.3,1.7,2,2.5c0.2,0.2,0.6,0.4,0.9,0.4
	c0.6,0,0.8-0.2,1-0.7c-0.4-0.1-0.6-0.2-1.1-0.8c-0.5-0.5-1-1.1-1.4-1.7c0.6-0.8,2-2.3,2.4-2.6v-0.1h-0.8c-0.5,0-0.8,0.1-1.2,0.4
	c-0.7,0.6-1.2,1.4-1.8,2.1v-3.5C124.5,16.9,124.2,16.5,123.5,16.5"/>
<path class="st1" d="M133,20.4c0,0.4-0.3,0.6-1.7,0.6h-0.6v-0.2c0-0.7,0.5-1.2,1.2-1.2C132.5,19.5,133,19.8,133,20.4 M134.3,20.5
	c0-1.4-1.1-2.3-2.3-2.3c-1.7,0-2.8,1.2-2.8,3.2c0,1.8,1.4,2.9,2.9,2.9c1.6,0,2.1-0.6,2.1-1.3v-0.5h-0.1c-0.5,0.4-1.2,0.5-1.8,0.5
	c-0.9,0-1.5-0.5-1.6-1.2h1C133.5,22,134.3,21.6,134.3,20.5"/>
<path class="st1" d="M141,24.2v-3.4c0-1.7-1.1-2.6-2.5-2.6c-1.8,0-2.6,1.3-2.6,2.5v2.5c0,0.5,0.4,0.9,1,0.9h0.4v-3.4
	c0-0.8,0.4-1.3,1.1-1.3c0.7,0,1.2,0.4,1.2,1.4v2.3c0,0.5,0.4,0.9,1.1,0.9h0.3V24.2z"/>
<path class="st1" d="M148,24.2v-3.4c0-1.7-1.1-2.6-2.5-2.6c-1.8,0-2.6,1.3-2.6,2.5v2.5c0,0.5,0.4,0.9,1,0.9h0.4v-3.4
	c0-0.8,0.4-1.3,1.1-1.3c0.7,0,1.2,0.4,1.2,1.4v2.3c0,0.5,0.4,0.9,1.1,0.9h0.3V24.2z"/>
<path class="st1" d="M153.2,23c0.3-0.6,1.3-3.3,1.3-3.9c0-0.5-0.2-0.7-0.7-0.7h-0.6c-0.1,1.2-0.7,2.9-1.1,4c-0.5-1-1-2.2-1.2-3.4
	c-0.1-0.4-0.4-0.7-0.8-0.7h-0.8c0.2,1.4,1.3,4.3,2.1,5.4c-0.3,0.8-0.5,1-1,1.1l-0.8,0.1v0.3c0,0.5,0.5,0.9,1,0.9
	C151.5,26.1,152.1,25.5,153.2,23"/>
<path class="st1" d="M160.1,24.2v-6.6c0-0.5-0.4-0.8-0.8-0.8h-0.7v6.4c0,0.6,0.5,1,0.9,1L160.1,24.2L160.1,24.2z"/>
<path class="st1" d="M167.1,24.2v-3.4c0-1.7-1.1-2.6-2.5-2.6c-1.8,0-2.6,1.3-2.6,2.5v2.5c0,0.5,0.4,0.9,1,0.9h0.4v-3.4
	c0-0.8,0.4-1.3,1.1-1.3c0.7,0,1.2,0.4,1.2,1.4v2.3c0,0.5,0.4,0.9,1.1,0.9h0.3V24.2z"/>
<path class="st1" d="M173.2,22.4c0-0.9-0.6-1.5-1.9-1.7c-1-0.2-1.2-0.3-1.2-0.6c0-0.4,0.3-0.6,1.2-0.6c0.7,0,1.4,0.2,1.7,0.5h0.1
	v-0.6c0-0.6-0.5-1.2-1.9-1.2c-1.5,0-2.5,0.9-2.5,2c0,0.9,0.6,1.4,1.8,1.5c1,0.1,1.2,0.3,1.2,0.6c0,0.4-0.3,0.6-1.1,0.6
	c-0.7,0-1.4-0.3-1.7-0.6h-0.1V23c0,0.6,0.8,1.1,1.9,1.1C172.3,24.4,173.2,23.6,173.2,22.4"/>
<path class="st1" d="M174.8,18.6v3.5c0,1.4,0.7,2.2,2.2,2.2c0.8,0,1.3-0.4,1.3-1v-0.5h-0.1c-0.2,0.1-0.6,0.2-1,0.2
	c-0.6,0-0.9-0.3-0.9-1v-2.3h1.2c0.6,0,0.9-0.4,0.9-0.7v-0.6h-2v-1.3h-0.3c-0.2,0-0.5,0.2-0.7,0.4C174.9,17.9,174.8,18.1,174.8,18.6"
	/>
<path class="st1" d="M182.4,23.4v-0.3h-0.3c-0.6,0-0.9-0.2-0.9-0.8v-2.7c0-0.7-0.4-1.1-1-1.1h-0.4v3.9c0,1.2,0.6,1.8,1.7,1.8
	C182.1,24.3,182.4,24,182.4,23.4 M181.3,17.1c0-0.5-0.4-0.8-0.9-0.8s-0.8,0.4-0.8,0.8s0.4,0.9,0.8,0.9
	C180.9,18,181.3,17.6,181.3,17.1"/>
<path class="st1" d="M183.7,18.6v3.5c0,1.4,0.7,2.2,2.2,2.2c0.8,0,1.3-0.4,1.3-1v-0.5h-0.1c-0.2,0.1-0.6,0.2-1,0.2
	c-0.6,0-0.9-0.3-0.9-1v-2.3h1.2c0.6,0,0.9-0.4,0.9-0.7v-0.6h-2v-1.3H185c-0.2,0-0.5,0.2-0.7,0.4C183.8,17.9,183.7,18.1,183.7,18.6"
	/>
<path class="st1" d="M193.5,21.6v-2.2c0-0.7-0.4-1-1.2-1H192v3.3c0,1-0.4,1.4-1,1.4c-0.7,0-1.2-0.4-1.2-1.5v-2.1c0-0.7-0.4-1-1.2-1
	h-0.3v3.3c0,1.7,1.1,2.6,2.6,2.6C192.7,24.4,193.5,23.4,193.5,21.6"/>
<path class="st1" d="M195.5,18.6v3.5c0,1.4,0.7,2.2,2.2,2.2c0.8,0,1.3-0.4,1.3-1v-0.5h-0.1c-0.2,0.1-0.6,0.2-1,0.2
	c-0.6,0-0.9-0.3-0.9-1v-2.3h1.2c0.6,0,0.9-0.4,0.9-0.7v-0.6h-2v-1.3h-0.3c-0.2,0-0.5,0.2-0.7,0.4C195.6,17.9,195.5,18.1,195.5,18.6"
	/>
<path class="st1" d="M203.8,20.4c0,0.4-0.3,0.6-1.7,0.6h-0.6v-0.2c0-0.7,0.5-1.2,1.2-1.2C203.3,19.5,203.8,19.8,203.8,20.4
	 M205.1,20.5c0-1.4-1.1-2.3-2.3-2.3c-1.7,0-2.8,1.2-2.8,3.2c0,1.8,1.4,2.9,2.9,2.9c1.6,0,2.1-0.6,2.1-1.3v-0.5h-0.1
	c-0.5,0.4-1.2,0.5-1.8,0.5c-0.9,0-1.5-0.5-1.6-1.2h1C204.3,22,205.1,21.6,205.1,20.5"/>
<path class="st1" d="M213.4,21.4c0,1-0.4,1.6-1.3,1.6c-1,0-1.4-0.7-1.4-1.8c0-1,0.4-1.7,1.3-1.7C213,19.6,213.4,20.3,213.4,21.4
	 M209.3,21.4c0,1.5,1,2.9,2.8,2.9c1.9,0,2.9-1.4,2.9-3.1c0-1.5-1-2.9-2.8-2.9C210.3,18.3,209.3,19.7,209.3,21.4"/>
<path class="st1" d="M219.9,17.8v-0.5c0-0.6-0.5-0.9-1.1-0.9c-1.7,0-2.3,1.3-2.3,2.1v4.9c0,0.5,0.4,0.9,0.9,0.9h0.6v-3.9h0.6
	c0.5,0,1-0.3,1-0.8v-0.4h-1.7v-0.5c0-0.8,0.4-1,1-1C219.3,17.6,219.6,17.7,219.9,17.8L219.9,17.8z"/>
<path class="st1" d="M229,17.3v-0.5h-5c-0.6,0-0.9,0.5-0.9,0.8v0.5h2.1v5.1c0,0.7,0.4,1,0.9,1h0.6v-6.1h1.4
	C228.6,18.1,229,17.7,229,17.3"/>
<path class="st1" d="M233.1,20.4c0,0.4-0.3,0.6-1.7,0.6h-0.6v-0.2c0-0.7,0.5-1.2,1.2-1.2C232.6,19.5,233.1,19.8,233.1,20.4
	 M234.4,20.5c0-1.4-1.1-2.3-2.3-2.3c-1.7,0-2.9,1.2-2.9,3.2c0,1.8,1.4,2.9,2.9,2.9c1.6,0,2.1-0.6,2.1-1.3v-0.5h-0.1
	c-0.5,0.4-1.2,0.5-1.8,0.5c-0.9,0-1.5-0.5-1.6-1.2h0.9C233.6,22,234.4,21.6,234.4,20.5"/>
<path class="st1" d="M240.5,20.3v-0.7c0-0.7-0.7-1.3-1.6-1.3c-2,0-3.1,1.4-3.1,3.1c0,1.7,1.4,2.9,3,2.9c1,0,1.7-0.5,1.7-1.2v-0.7
	h-0.1c-0.2,0.3-0.7,0.5-1.5,0.5c-1,0-1.6-0.7-1.6-1.8c0-0.9,0.7-1.5,1.6-1.5C239.7,19.7,240.2,20,240.5,20.3L240.5,20.3z"/>
<path class="st1" d="M247.1,24.2v-3.4c0-1.7-0.9-2.5-2.4-2.5c-0.6,0-1,0.4-1.3,0.8v-1.7c0-0.5-0.3-0.9-1-0.9H242v6.8
	c0,0.6,0.3,1,1,1h0.5V21c0-1,0.6-1.4,1-1.4c0.6,0,1.2,0.4,1.2,1.3v2.4c0,0.6,0.4,1,1,1h0.4V24.2z"/>
<path class="st1" d="M254.1,24.2v-3.4c0-1.7-1.1-2.6-2.5-2.6c-1.8,0-2.6,1.3-2.6,2.5v2.5c0,0.5,0.4,0.9,1,0.9h0.4v-3.4
	c0-0.8,0.4-1.3,1.1-1.3s1.2,0.4,1.2,1.4v2.3c0,0.5,0.4,0.9,1.1,0.9h0.3V24.2z"/>
<path class="st1" d="M259.8,21.4c0,1-0.4,1.6-1.3,1.6c-1,0-1.4-0.7-1.4-1.8c0-1,0.4-1.7,1.3-1.7C259.4,19.6,259.8,20.3,259.8,21.4
	 M255.7,21.4c0,1.5,1,2.9,2.8,2.9c1.9,0,2.9-1.4,2.9-3.1c0-1.5-1-2.9-2.8-2.9C256.7,18.3,255.7,19.7,255.7,21.4"/>
<path class="st1" d="M265.8,23.4v-0.3h-0.4c-0.7,0-1-0.2-1-0.8v-4.9c0-0.6-0.3-1-1-1H263v6c0,1.2,0.6,1.8,1.8,1.8
	C265.4,24.3,265.8,24,265.8,23.4"/>
<path class="st1" d="M270.7,21.4c0,1-0.4,1.6-1.3,1.6c-1,0-1.4-0.7-1.4-1.8c0-1,0.4-1.7,1.3-1.7C270.3,19.6,270.7,20.3,270.7,21.4
	 M266.6,21.4c0,1.5,1,2.9,2.8,2.9c1.9,0,2.9-1.4,2.9-3.1c0-1.5-1-2.9-2.8-2.9C267.6,18.3,266.6,19.7,266.6,21.4"/>
<path class="st1" d="M276.4,19.6c0.6,0,1.1,0.4,1.1,1.3c0,0.9-0.5,1.5-1.2,1.5s-1.2-0.6-1.2-1.3C275.1,20.2,275.6,19.6,276.4,19.6
	 M278.9,21.8v-1c0-1.5-0.9-2.5-2.4-2.5c-1.9,0-3,1.3-3,3c0,1.4,1,2.4,2.4,2.4c0.8,0,1.4-0.4,1.5-0.9v0.1c0,0.1,0,0.2,0,0.3
	s0,0.2,0,0.3c0,0.8-0.5,1.3-1.5,1.3c-0.8,0-1.5-0.3-1.8-0.6H274v0.7c0,0.7,0.8,1.3,2,1.3c1.9,0,2.8-1.3,2.8-2.8c0-0.2,0-0.5,0-0.7
	C278.9,22.3,278.9,22,278.9,21.8"/>
<path class="st1" d="M284.1,23c0.3-0.6,1.3-3.3,1.3-3.9c0-0.5-0.2-0.7-0.7-0.7h-0.6c-0.1,1.2-0.7,2.9-1.1,4c-0.5-1-1-2.2-1.2-3.4
	c-0.1-0.4-0.4-0.7-0.8-0.7h-0.8c0.2,1.4,1.3,4.3,2.1,5.4c-0.3,0.8-0.5,1-1,1.1l-0.8,0.1v0.3c0,0.5,0.5,0.9,1,0.9
	C282.5,26.1,283.1,25.5,284.1,23"/>
<path class="st0" d="M91.7,10.2V3.6c0-0.5-0.4-0.8-0.8-0.8h-0.7v6.4c0,0.6,0.5,1,0.9,1L91.7,10.2L91.7,10.2z"/>
<path class="st0" d="M98.7,10.2V6.8c0-1.7-1.1-2.6-2.5-2.6c-1.8,0-2.6,1.3-2.6,2.5v2.5c0,0.5,0.4,0.9,1,0.9H95V6.7
	c0-0.8,0.4-1.3,1.1-1.3c0.7,0,1.2,0.4,1.2,1.4v2.3c0,0.5,0.4,0.9,1.1,0.9h0.3V10.2z"/>
<path class="st0" d="M104.8,8.4c0-0.9-0.6-1.5-1.9-1.7c-1-0.2-1.2-0.3-1.2-0.6c0-0.4,0.3-0.6,1.2-0.6c0.7,0,1.4,0.2,1.7,0.5h0.1V5.4
	c0-0.6-0.5-1.2-1.9-1.2c-1.5,0-2.5,0.9-2.5,2c0,0.9,0.6,1.4,1.8,1.5c1,0.1,1.2,0.3,1.2,0.6c0,0.4-0.3,0.6-1.1,0.6
	c-0.7,0-1.4-0.3-1.7-0.6h-0.1V9c0,0.6,0.8,1.1,1.9,1.1C103.9,10.4,104.8,9.6,104.8,8.4"/>
<path class="st0" d="M106.4,4.6v3.5c0,1.4,0.7,2.2,2.2,2.2c0.8,0,1.3-0.4,1.3-1V8.8h-0.1c-0.2,0.1-0.6,0.2-1,0.2
	c-0.6,0-0.9-0.3-0.9-1V5.7h1.2c0.6,0,0.9-0.4,0.9-0.7V4.4h-2V3.1h-0.3c-0.2,0-0.5,0.2-0.7,0.4C106.5,3.9,106.4,4.1,106.4,4.6"/>
<path class="st0" d="M113.9,9.4V9.1h-0.3c-0.6,0-0.9-0.2-0.9-0.8V5.6c0-0.7-0.4-1.1-1-1.1h-0.4v3.9c0,1.2,0.6,1.8,1.7,1.8
	C113.7,10.3,113.9,10,113.9,9.4 M112.9,3.1c0-0.5-0.4-0.8-0.9-0.8s-0.8,0.4-0.8,0.8S111.6,4,112,4S112.9,3.6,112.9,3.1"/>
<path class="st0" d="M115.2,4.6v3.5c0,1.4,0.7,2.2,2.2,2.2c0.8,0,1.3-0.4,1.3-1V8.8h-0.1c-0.2,0.1-0.6,0.2-1,0.2
	c-0.6,0-0.9-0.3-0.9-1V5.7h1.2c0.6,0,0.9-0.4,0.9-0.7V4.4h-2V3.1h-0.3c-0.2,0-0.5,0.2-0.7,0.4C115.4,3.9,115.2,4.1,115.2,4.6"/>
<path class="st0" d="M122.8,9.4V9.1h-0.3c-0.6,0-0.9-0.2-0.9-0.8V5.6c0-0.7-0.4-1.1-1-1.1h-0.4v3.9c0,1.2,0.6,1.8,1.7,1.8
	C122.5,10.3,122.8,10,122.8,9.4 M121.8,3.1c0-0.5-0.4-0.8-0.9-0.8s-0.8,0.4-0.8,0.8s0.4,0.9,0.8,0.9C121.4,4,121.8,3.6,121.8,3.1"/>
<path class="st0" d="M128.1,2.5c0-0.4-0.2-0.5-0.6-0.5c-0.4,0-0.7,0.2-1,0.5s-0.6,0.6-0.8,1v0.1h0.5c0.4,0,0.9-0.1,1.2-0.3
	C127.8,3.1,128.1,2.8,128.1,2.5 M129.2,7.6V5.4c0-0.7-0.4-1-1.2-1h-0.3v3.3c0,1-0.4,1.4-1,1.4c-0.7,0-1.2-0.4-1.2-1.5V5.5
	c0-0.7-0.4-1-1.2-1H124v3.3c0,1.7,1.1,2.6,2.6,2.6C128.3,10.4,129.2,9.4,129.2,7.6"/>
<path class="st0" d="M133.8,9.4V9.1h-0.3c-0.6,0-0.9-0.2-0.9-0.8V5.6c0-0.7-0.4-1.1-1-1.1h-0.4v3.9c0,1.2,0.6,1.8,1.7,1.8
	C133.5,10.3,133.8,10,133.8,9.4 M132.8,3.1c0-0.5-0.4-0.8-0.9-0.8s-0.8,0.4-0.8,0.8s0.4,0.9,0.8,0.9C132.4,4,132.8,3.6,132.8,3.1"/>
<path class="st0" d="M138.8,7.5c0,1.1-0.4,1.7-1.2,1.7s-1.5-0.8-1.5-2c0-0.9,0.5-1.7,1.2-1.7C138.2,5.5,138.8,6,138.8,7.5
	 M140.3,7.6V3.5c0-0.6-0.3-1-1-1h-0.4v2.7c-0.2-0.5-0.9-0.9-1.4-0.9c-1.7,0-2.6,1.2-2.6,3.2c0,1.6,1.2,2.9,2.7,2.9
	C139.5,10.4,140.3,9.2,140.3,7.6"/>
<path class="st0" d="M150.2,3.3V2.8h-5c-0.6,0-0.9,0.5-0.9,0.8v0.5h2.1v5.1c0,0.7,0.4,1,0.9,1h0.6V4.1h1.4
	C149.8,4.1,150.2,3.7,150.2,3.3"/>
<path class="st0" d="M154.3,6.4c0,0.4-0.3,0.6-1.7,0.6H152V6.8c0-0.7,0.5-1.2,1.2-1.2C153.9,5.5,154.3,5.8,154.3,6.4 M155.7,6.5
	c0-1.4-1.1-2.3-2.3-2.3c-1.7,0-2.8,1.2-2.8,3.2c0,1.8,1.4,2.9,2.9,2.9c1.6,0,2.1-0.6,2.1-1.3V8.5h-0.1C155,8.9,154.3,9,153.7,9
	c-0.9,0-1.5-0.5-1.6-1.2h1C154.9,8,155.7,7.6,155.7,6.5"/>
<path class="st0" d="M160,9.4V9.1h-0.3c-0.6,0-0.9-0.2-0.9-0.8V5.6c0-0.7-0.4-1.1-1-1.1h-0.4v3.9c0,1.2,0.6,1.8,1.7,1.8
	C159.8,10.3,160,10,160,9.4 M159,3.1c0-0.5-0.4-0.8-0.9-0.8s-0.8,0.4-0.8,0.8s0.4,0.9,0.8,0.9C158.6,4,159,3.6,159,3.1"/>
<path class="st0" d="M165.7,6.3V5.6c0-0.7-0.7-1.3-1.6-1.3c-2,0-3.1,1.4-3.1,3.1c0,1.7,1.4,2.9,3,2.9c1,0,1.7-0.5,1.7-1.2V8.4h-0.1
	c-0.2,0.3-0.7,0.5-1.5,0.5c-1,0-1.6-0.7-1.6-1.8c0-0.9,0.7-1.5,1.6-1.5C164.9,5.7,165.5,6,165.7,6.3L165.7,6.3z"/>
<path class="st0" d="M172.4,10.2V6.8c0-1.7-1.1-2.6-2.5-2.6c-1.8,0-2.6,1.3-2.6,2.5v2.5c0,0.5,0.4,0.9,1,0.9h0.4V6.7
	c0-0.8,0.4-1.3,1.1-1.3c0.7,0,1.2,0.4,1.2,1.4v2.3c0,0.5,0.4,0.9,1.1,0.9h0.3V10.2z"/>
<path class="st0" d="M177.8,6.4c0,0.4-0.3,0.6-1.7,0.6h-0.6V6.8c0-0.7,0.5-1.2,1.2-1.2C177.3,5.5,177.8,5.8,177.8,6.4 M179.1,6.5
	c0-1.4-1.1-2.3-2.3-2.3c-1.7,0-2.9,1.2-2.9,3.2c0,1.8,1.4,2.9,2.9,2.9c1.6,0,2.1-0.6,2.1-1.3V8.5h-0.1C178.3,8.9,177.6,9,177,9
	c-0.9,0-1.5-0.5-1.6-1.2h0.9C178.3,8,179.1,7.6,179.1,6.5"/>
<path class="st0" d="M184.6,7.4c0,1-0.4,1.6-1.3,1.6c-1,0-1.4-0.7-1.4-1.8c0-1,0.4-1.7,1.3-1.7C184.1,5.6,184.6,6.3,184.6,7.4
	 M180.4,7.4c0,1.5,1,2.9,2.8,2.9c1.9,0,2.9-1.4,2.9-3.1c0-1.5-1-2.9-2.8-2.9C181.4,4.3,180.4,5.7,180.4,7.4"/>
<path class="st0" d="M190.5,9.4V9.1h-0.4c-0.7,0-1-0.2-1-0.8V3.4c0-0.6-0.3-1-1-1h-0.4v6c0,1.2,0.6,1.8,1.8,1.8
	C190.2,10.3,190.5,10,190.5,9.4"/>
<path class="st0" d="M194.7,8.3c0,0.6-0.3,0.9-0.9,0.9s-1-0.3-1-0.7c0-0.5,0.3-0.7,1.4-0.7h0.5V8.3z M196.2,8.3V7
	c0-2-1.2-2.6-2.5-2.6c-1.5,0-2.1,0.8-2.1,1.4v0.5h0.1c0.2-0.3,0.8-0.7,1.8-0.7c0.9,0,1.3,0.2,1.3,1.1v0.1h-0.5
	c-2.1,0-2.9,0.8-2.9,1.8c0,1.1,0.9,1.8,2.3,1.8h0.3C195.3,10.3,196.2,9.5,196.2,8.3"/>
<path class="st0" d="M200.5,9.4V9.1h-0.3c-0.6,0-0.9-0.2-0.9-0.8V5.6c0-0.7-0.4-1.1-1-1.1h-0.4v3.9c0,1.2,0.6,1.8,1.7,1.8
	C200.3,10.3,200.5,10,200.5,9.4 M200.3,2.5c0-0.4-0.2-0.5-0.6-0.5s-0.7,0.2-1,0.5s-0.6,0.6-0.8,1v0.1h0.5c0.4,0,0.9-0.1,1.2-0.3
	C200,3.1,200.3,2.8,200.3,2.5"/>
<path class="st0" d="M205.7,7.4c0,1-0.4,1.6-1.3,1.6c-1,0-1.4-0.7-1.4-1.8c0-1,0.4-1.7,1.3-1.7C205.2,5.6,205.7,6.3,205.7,7.4
	 M201.5,7.4c0,1.5,1,2.9,2.8,2.9c1.9,0,2.9-1.4,2.9-3.1c0-1.5-1-2.9-2.8-2.9C202.5,4.3,201.5,5.7,201.5,7.4"/>
<path class="st0" d="M213.2,6.3V5.6c0-0.7-0.7-1.3-1.6-1.3c-2,0-3.1,1.4-3.1,3.1c0,1.7,1.4,2.9,3,2.9c1,0,1.7-0.5,1.7-1.2V8.4h-0.1
	c-0.2,0.3-0.7,0.5-1.5,0.5c-1,0-1.6-0.7-1.6-1.8c0-0.9,0.7-1.5,1.6-1.5C212.4,5.7,212.9,6,213.2,6.3L213.2,6.3z"/>
<path class="st0" d="M219.9,10.2V6.8c0-1.7-0.9-2.5-2.4-2.5c-0.6,0-1,0.4-1.3,0.8V3.4c0-0.5-0.3-0.9-1-0.9h-0.5v6.8c0,0.6,0.3,1,1,1
	h0.5V7c0-1,0.6-1.4,1-1.4c0.6,0,1.2,0.4,1.2,1.3v2.4c0,0.6,0.4,1,1,1h0.5V10.2z"/>
<path class="st0" d="M221.8,4.6v3.5c0,1.4,0.7,2.2,2.2,2.2c0.8,0,1.3-0.4,1.3-1V8.8h-0.1c-0.2,0.1-0.6,0.2-1,0.2
	c-0.6,0-0.9-0.3-0.9-1V5.7h1.2c0.6,0,0.9-0.4,0.9-0.7V4.4h-2V3.1h-0.3c-0.2,0-0.5,0.2-0.7,0.4C221.9,3.9,221.8,4.1,221.8,4.6"/>
<path class="st0" d="M229.7,8.3c0,0.6-0.3,0.9-0.9,0.9s-1-0.3-1-0.7c0-0.5,0.3-0.7,1.4-0.7h0.5V8.3z M231.1,8.3V7
	c0-2-1.2-2.6-2.5-2.6c-1.5,0-2.1,0.8-2.1,1.4v0.5h0.1c0.2-0.3,0.8-0.7,1.8-0.7c0.9,0,1.3,0.2,1.3,1.1v0.1h-0.5
	c-2.1,0-2.9,0.8-2.9,1.8c0,1.1,0.9,1.8,2.3,1.8h0.3C230.2,10.3,231.1,9.5,231.1,8.3"/>
<path class="st0" d="M240.4,9.2V8.7c-0.3,0.1-0.8,0.3-1.5,0.3h-0.4c-1.1,0-1.4-0.4-1.4-1.5V4c0-0.7-0.3-1.1-0.9-1.1h-0.6v4.7
	c0,1.8,1,2.7,2.7,2.7h0.6C240.1,10.3,240.4,9.9,240.4,9.2"/>
<path class="st0" d="M245.2,6.4c0,0.4-0.3,0.6-1.7,0.6h-0.6V6.8c0-0.7,0.5-1.2,1.2-1.2C244.7,5.5,245.2,5.8,245.2,6.4 M246.5,6.5
	c0-1.4-1.1-2.3-2.3-2.3c-1.7,0-2.9,1.2-2.9,3.2c0,1.8,1.4,2.9,2.9,2.9c1.6,0,2.1-0.6,2.1-1.3V8.5h-0.1C245.7,8.9,245,9,244.4,9
	c-0.9,0-1.5-0.5-1.6-1.2h0.9C245.7,8,246.5,7.6,246.5,6.5"/>
<path class="st0" d="M250.9,9.4V9.1h-0.3c-0.6,0-0.9-0.2-0.9-0.8V5.6c0-0.7-0.4-1.1-1-1.1h-0.4v3.9c0,1.2,0.6,1.8,1.7,1.8
	C250.6,10.3,250.9,10,250.9,9.4 M249.8,3.1c0-0.5-0.4-0.8-0.9-0.8s-0.8,0.4-0.8,0.8s0.4,0.9,0.8,0.9C249.4,4,249.8,3.6,249.8,3.1"/>
<path class="st0" d="M252.2,4.6v3.5c0,1.4,0.7,2.2,2.2,2.2c0.8,0,1.3-0.4,1.3-1V8.8h-0.1c-0.2,0.1-0.6,0.2-1,0.2
	c-0.6,0-0.9-0.3-0.9-1V5.7h1.2c0.6,0,0.9-0.4,0.9-0.7V4.4h-2V3.1h-0.3c-0.2,0-0.5,0.2-0.7,0.4C252.3,3.9,252.2,4.1,252.2,4.6"/>
<path class="st0" d="M259.7,9.4V9.1h-0.3c-0.6,0-0.9-0.2-0.9-0.8V5.6c0-0.7-0.4-1.1-1-1.1h-0.4v3.9c0,1.2,0.6,1.8,1.7,1.8
	C259.5,10.3,259.7,10,259.7,9.4 M258.7,3.1c0-0.5-0.4-0.8-0.9-0.8S257,2.7,257,3.1s0.4,0.9,0.8,0.9S258.7,3.6,258.7,3.1"/>
<path class="st0" d="M264.3,5.8V5.3c0-0.4-0.3-0.9-1.2-0.9c-1.5,0-2.1,1.1-2.1,2.3v2.7c0,0.6,0.4,0.9,1.1,0.9h0.4V7
	c0-0.9,0.4-1.2,1-1.2C263.8,5.7,264.1,5.7,264.3,5.8L264.3,5.8z"/>
<path class="st0" d="M274.1,4.8V4.2c0-1-0.9-1.5-2.1-1.5c-2.3,0-3.8,1.6-3.8,3.9c0,2.2,1.7,3.7,3.6,3.7c1,0,2.2-0.4,2.2-1.4V8.3h0
	c-0.4,0.4-1.2,0.7-2,0.7c-1.4,0-2.4-0.9-2.4-2.6c0-1.4,1-2.4,2.3-2.4C272.6,4,273.5,4.2,274.1,4.8L274.1,4.8z"/>
<path class="st0" d="M278.9,6.4c0,0.4-0.3,0.6-1.7,0.6h-0.6V6.8c0-0.7,0.5-1.2,1.2-1.2C278.5,5.5,278.9,5.8,278.9,6.4 M280.3,6.5
	c0-1.4-1.1-2.3-2.3-2.3c-1.7,0-2.8,1.2-2.8,3.2c0,1.8,1.4,2.9,2.9,2.9c1.6,0,2.1-0.6,2.1-1.3V8.5H280c-0.5,0.4-1.2,0.5-1.8,0.5
	c-0.9,0-1.5-0.5-1.6-1.2h0.9C279.4,8,280.3,7.6,280.3,6.5"/>
<path class="st0" d="M285,8.3c0,0.6-0.3,0.9-0.9,0.9s-1-0.3-1-0.7c0-0.5,0.3-0.7,1.4-0.7h0.5V8.3z M286.4,8.3V7c0-2-1.2-2.6-2.5-2.6
	c-1.5,0-2.1,0.8-2.1,1.4v0.5h0.1c0.2-0.3,0.8-0.7,1.8-0.7c0.9,0,1.3,0.2,1.3,1.1v0.1h-0.5c-2.1,0-2.9,0.8-2.9,1.8
	c0,1.1,1,1.8,2.3,1.8h0.3C285.5,10.3,286.4,9.5,286.4,8.3"/>
<path class="st0" d="M293.1,10.2V6.8c0-1.7-1.1-2.6-2.5-2.6c-1.8,0-2.6,1.3-2.6,2.5v2.5c0,0.5,0.4,0.9,1,0.9h0.4V6.7
	c0-0.8,0.4-1.3,1.1-1.3s1.2,0.4,1.2,1.4v2.3c0,0.5,0.4,0.9,1.1,0.9h0.3V10.2z"/>
<path class="st0" d="M298.1,8.3c0,0.6-0.3,0.9-0.9,0.9s-1-0.3-1-0.7c0-0.5,0.3-0.7,1.4-0.7h0.5V8.3z M299.5,8.3V7
	c0-2-1.2-2.6-2.5-2.6c-1.5,0-2.1,0.8-2.1,1.4v0.5h0.1c0.2-0.3,0.8-0.7,1.8-0.7c0.9,0,1.3,0.2,1.3,1.1v0.1h-0.5
	c-2.1,0-2.9,0.8-2.9,1.8c0,1.1,1,1.8,2.3,1.8h0.3C298.6,10.3,299.5,9.5,299.5,8.3"/>
<path class="st0" d="M303.9,9.4V9.1h-0.3c-0.6,0-0.9-0.2-0.9-0.8V5.6c0-0.7-0.4-1.1-1-1.1h-0.4v3.9c0,1.2,0.6,1.8,1.7,1.8
	C303.6,10.3,303.9,10,303.9,9.4 M302.9,3.1c0-0.5-0.4-0.8-0.9-0.8s-0.8,0.4-0.8,0.8S301.6,4,302,4C302.5,4,302.9,3.6,302.9,3.1"/>
<path class="st0" d="M310.3,10.2V6.8c0-1.7-1.1-2.6-2.5-2.6c-1.8,0-2.6,1.3-2.6,2.5v2.5c0,0.5,0.4,0.9,1,0.9h0.4V6.7
	c0-0.8,0.4-1.3,1.1-1.3s1.2,0.4,1.2,1.4v2.3c0,0.5,0.4,0.9,1.1,0.9h0.3V10.2z"/>
<path class="st0" d="M317.3,10.2V6.8c0-1.7-1.1-2.6-2.5-2.6c-1.8,0-2.6,1.3-2.6,2.5v2.5c0,0.5,0.4,0.9,1,0.9h0.4V6.7
	c0-0.8,0.4-1.3,1.1-1.3s1.2,0.4,1.2,1.4v2.3c0,0.5,0.4,0.9,1.1,0.9h0.3V10.2z"/>
<line class="st2" x1="75.3" y1="2.1" x2="75.3" y2="25.6"/>
</svg>
